Coordinates
version=1
nRows=32
nColumns=22
inDegrees=yes

Units are S.I. units (second, meters, Newtons, ...)
If the header above contains a line with 'inDegrees', this indicates whether rotational values are in degrees (yes) or radians (no).

endheader
time	pelvis_tilt	pelvis_list	pelvis_rotation	pelvis_tx	pelvis_ty	pelvis_tz	hip_flexion_r	hip_adduction_r	hip_rotation_r	knee_angle_r	ankle_angle_r	subtalar_angle_r	hip_flexion_l	hip_adduction_l	hip_rotation_l	knee_angle_l	ankle_angle_l	subtalar_angle_l	lumbar_extension	lumbar_bending	lumbar_rotation
      1.38000000	     -4.04068994	     -6.25518253	      6.97223722	      1.05216640	      0.96815058	     -0.29369800	     10.34677523	      7.63392289	     -8.46970646	    -13.50648789	      6.03205975	      0.82692991	     13.87287785	     -8.10210376	      9.58079681	    -17.80388777	     11.17905586	      3.24589785	     -1.23079820	      6.87785716	     -5.31227038
      1.39000000	     -4.08016742	     -6.13899034	      7.01806844	      1.05051014	      0.96850252	     -0.29347708	     10.41016187	      7.52305994	     -8.50050734	    -13.37066901	      5.83700348	      0.80476713	     13.72570141	     -8.00548703	      9.71534468	    -17.86216473	     11.52173413	      3.24967760	     -1.21116496	      6.76767216	     -5.23951040
      1.40000000	     -4.10326895	     -6.02674089	      7.07754765	      1.04882743	      0.96881912	     -0.29331488	     10.48107225	      7.40997946	     -8.56125491	    -13.27257227	      5.66563642	      0.75265443	     13.54032964	     -7.91650529	      9.85015871	    -17.94633116	     11.85816882	      3.27024853	     -1.20089130	      6.66371885	     -5.20652286
      1.41000000	     -4.09773261	     -5.92918244	      7.17139161	      1.04713187	      0.96909439	     -0.29321818	     10.54489695	      7.30518854	     -8.69864904	    -13.20804373	      5.53203276	      0.55211760	     13.32411342	     -7.84371536	      9.99768987	    -18.08531460	     12.19433731	      3.38964170	     -1.20843300	      6.57493200	     -5.19995931
      1.42000000	     -4.13138092	     -5.85002215	      7.20816601	      1.04538032	      0.96926366	     -0.29307183	     10.68043751	      7.21758858	     -8.75029710	    -13.18860542	      5.37979546	      0.50993374	     13.11851159	     -7.80535040	     10.05666072	    -18.24655769	     12.53726600	      3.39695872	     -1.16897557	      6.50050547	     -5.17502053
      1.43000000	     -4.15062402	     -5.79115863	      7.28659675	      1.04353719	      0.96935563	     -0.29299366	     10.84354082	      7.13737007	     -8.87405790	    -13.22941599	      5.28379006	      0.37452581	     12.91992387	     -7.78065113	     10.14165089	    -18.48835754	     12.88942991	      3.48659845	     -1.13814797	      6.44392259	     -5.19295342
      1.44000000	     -4.17026947	     -5.73928156	      7.35361204	      1.04169369	      0.96939959	     -0.29294895	     11.01454254	      7.05978261	     -8.97625525	    -13.28225470	      5.18277526	      0.28996254	     12.68563846	     -7.77053488	     10.18431553	    -18.73712686	     13.23985817	      3.55200541	     -1.09156497	      6.39652382	     -5.22348811
      1.45000000	     -4.18128381	     -5.70023415	      7.43918741	      1.03982017	      0.96939796	     -0.29297540	     11.19335822	      6.98515405	     -9.09696649	    -13.35872679	      5.09904150	      0.21254658	     12.42854888	     -7.77116143	     10.22764805	    -19.01838068	     13.58237485	      3.63881481	     -1.04024414	      6.36190203	     -5.28102446
      1.46000000	     -4.17820302	     -5.65674820	      7.51671021	      1.03795286	      0.96938187	     -0.29304144	     11.35819125	      6.90400263	     -9.18850264	    -13.43881151	      5.00999756	      0.19836365	     12.11811105	     -7.77305356	     10.23489405	    -19.30632567	     13.91385990	      3.65085694	     -0.98878487	      6.31985854	     -5.32422557
      1.47000000	     -4.16093383	     -5.65205816	      7.66192644	      1.03601089	      0.96932171	     -0.29323189	     11.54134405	      6.84370315	     -9.35425289	    -13.56067177	      4.95239389	      0.13351951	     11.80966549	     -7.80073764	     10.30501158	    -19.65097809	     14.23592586	      3.85132744	     -0.93429363	      6.32134761	     -5.46283818
      1.48000000	     -4.12710856	     -5.63240260	      7.76285830	      1.03408642	      0.96926435	     -0.29343765	     11.71053515	      6.77248120	     -9.44732590	    -13.69894267	      4.90785100	      0.13302692	     11.42955429	     -7.82611320	     10.28732743	    -19.99351037	     14.53763364	      3.86624733	     -0.88683269	      6.30549028	     -5.54053751
      1.49000000	     -4.06247924	     -5.64906052	      7.93333622	      1.03210946	      0.96920723	     -0.29378787	     11.86561809	      6.72155606	     -9.61644614	    -13.85622406	      4.89901292	      0.13302128	     11.01918591	     -7.87768106	     10.33681037	    -20.36965402	     14.81268877	      4.00610044	     -0.84909892	      6.33627388	     -5.70613243
      1.50000000	     -3.99557116	     -5.66054754	      8.10302694	      1.03007738	      0.96915086	     -0.29418927	     12.01416723	      6.66275985	     -9.75700985	    -13.99966056	      4.82751597	      0.15160186	     10.59182387	     -7.92224118	     10.36006618	    -20.78802594	     15.07386098	      4.22154714	     -0.80394995	      6.35578991	     -5.85498647
      1.51000000	     -3.93176506	     -5.66471217	      8.23408778	      1.02798481	      0.96906915	     -0.29459120	     12.19247155	      6.59588752	     -9.85727358	    -14.19007590	      4.78055360	      0.15991982	     10.13784511	     -7.96658480	     10.30336658	    -21.23302380	     15.29524794	      4.25085364	     -0.74970073	      6.36368774	     -5.96166440
      1.52000000	     -3.83259962	     -5.70416439	      8.42796287	      1.02581995	      0.96900485	     -0.29510482	     12.34822192	      6.55299893	    -10.02973178	    -14.38967760	      4.76598284	      0.17482198	      9.65312123	     -8.03966073	     10.32081354	    -21.72020980	     15.49116939	      4.40662536	     -0.71294873	      6.41351170	     -6.14610582
      1.53000000	     -3.73736609	     -5.73149988	      8.59872103	      1.02357027	      0.96893091	     -0.29562663	     12.51960573	      6.49688736	    -10.17000600	    -14.60296641	      4.71614758	      0.19334582	      9.17062522	     -8.10180539	     10.27638953	    -22.27581032	     15.65735165	      4.55247643	     -0.66875101	      6.44290856	     -6.29646567
      1.54000000	     -3.63702601	     -5.75962440	      8.78622377	      1.02123166	      0.96885555	     -0.29620890	     12.68777656	      6.43542094	    -10.31257667	    -14.80833062	      4.64863145	      0.22360487	      8.69970717	     -8.15831663	     10.23498028	    -22.91493728	     15.78985993	      4.77901574	     -0.62033967	      6.46800973	     -6.46299003
      1.55000000	     -3.53686287	     -5.78810843	      8.95826626	      1.01882498	      0.96876388	     -0.29681242	     12.88418862	      6.36798871	    -10.45144135	    -15.05819944	      4.59473825	      0.25593025	      8.22356915	     -8.21701547	     10.15405562	    -23.60809776	     15.89916141	      4.97417445	     -0.56431840	      6.48942195	     -6.62262266
      1.56000000	     -3.42597156	     -5.80115851	      9.09873145	      1.01635209	      0.96868334	     -0.29743371	     13.08268260	      6.28674919	    -10.55303923	    -15.33081216	      4.52790980	      0.27214424	      7.72848451	     -8.26145302	     10.01685272	    -24.35833304	     15.95260658	      5.00981357	     -0.51774173	      6.49246954	     -6.74483326
      1.57000000	     -3.30786810	     -5.84409917	      9.28686958	      1.01375677	      0.96857127	     -0.29815387	     13.31443197	      6.21426227	    -10.73205465	    -15.65502917	      4.50582897	      0.30817011	      7.25458573	     -8.32257152	      9.96443665	    -25.18030317	     16.02436735	      5.16291918	     -0.46646299	      6.52755705	     -6.92364189
      1.58000000	     -3.22130546	     -5.87319175	      9.48780595	      1.01102432	      0.96841806	     -0.29892578	     13.56777956	      6.11766153	    -10.89470961	    -15.94428689	      4.43437517	      0.38521426	      6.86201017	     -8.35595635	      9.90811023	    -26.11768021	     16.07208935	      5.46097641	     -0.37926547	      6.53323629	     -7.12448323
      1.59000000	     -3.09227160	     -5.89267853	      9.63912577	      1.00823250	      0.96830562	     -0.29970609	     13.80914573	      6.01785138	    -11.02995269	    -16.29252495	      4.38123240	      0.41940336	      6.39724475	     -8.39115697	      9.79370364	    -27.06027428	     16.08393036	      5.56805286	     -0.34278349	      6.53900103	     -7.26141795
      1.60000000	     -3.00825921	     -5.91179625	      9.84281108	      1.00524862	      0.96811544	     -0.30058194	     14.09317791	      5.89431644	    -11.20111120	    -16.60972416	      4.31048061	      0.49232697	      6.04785618	     -8.40299087	      9.75025384	    -28.10671890	     16.10596990	      5.83813125	     -0.25517613	      6.52840535	     -7.47426110
      1.61000000	     -2.90262180	     -5.92385055	     10.01801520	      1.00215277	      0.96793929	     -0.30147652	     14.37281119	      5.76550066	    -11.35365473	    -16.95225582	      4.24233857	      0.55384678	      5.67741114	     -8.41535866	      9.67250831	    -29.16858597	     16.10996545	      6.08596118	     -0.19828426	      6.51461835	     -7.64852946
      1.62000000	     -2.79067766	     -5.92886576	     10.19502572	      0.99891477	      0.96775527	     -0.30242851	     14.64899424	      5.62410747	    -11.51004900	    -17.28884493	      4.17026828	      0.61050852	      5.32320153	     -8.41987254	      9.60067078	    -30.25581877	     16.09832103	      6.32473150	     -0.15438173	      6.49370683	     -7.82237123
      1.63000000	     -2.67594574	     -5.92746947	     10.36986054	      0.99552201	      0.96755740	     -0.30343491	     14.92965779	      5.46956377	    -11.67036619	    -17.62539179	      4.09634252	      0.67072321	      4.98906232	     -8.41781010	      9.53103199	    -31.35595665	     16.05982418	      6.56831142	     -0.12038814	      6.46710268	     -7.99129872
      1.64000000	     -2.56834332	     -5.92629508	     10.53035111	      0.99195605	      0.96733538	     -0.30445642	     15.22915383	      5.31127108	    -11.81112783	    -17.96320158	      4.00053288	      0.75629534	      4.68332444	     -8.41908630	      9.45615011	    -32.45245468	     15.96862074	      6.85586216	     -0.08884038	      6.43682122	     -8.14168943
      1.65000000	     -2.44979080	     -5.91664895	     10.69910070	      0.98822199	      0.96709923	     -0.30555739	     15.52340165	      5.13429910	    -11.97332266	    -18.30015583	      3.91910374	      0.84476003	      4.38597125	     -8.41248895	      9.39529574	    -33.53038495	     15.81455971	      7.05752826	     -0.07793048	      6.40274279	     -8.29297152
      1.66000000	     -2.31830603	     -5.89434167	     10.87756629	      0.98431278	      0.96685262	     -0.30671876	     15.80874543	      4.93610311	    -12.15373516	    -18.63333986	      3.85035965	      0.92349925	      4.08974754	     -8.39578907	      9.35470996	    -34.57031054	     15.57661307	      7.17367901	     -0.09109179	      6.35582421	     -8.45069314
      1.67000000	     -2.20708214	     -5.87636643	     11.05077465	      0.98019267	      0.96654761	     -0.30791571	     16.13603483	      4.72962230	    -12.33106367	    -18.98011350	      3.76540706	      1.03929514	      3.83864648	     -8.38517132	      9.31137886	    -35.57137825	     15.23418437	      7.28158305	     -0.09277813	      6.31085771	     -8.59579830
      1.68000000	     -2.09604347	     -5.85442670	     11.22840815	      0.97588246	      0.96620579	     -0.30915943	     16.47444110	      4.50985089	    -12.51238364	    -19.32886796	      3.67896305	      1.16686528	      3.60261719	     -8.37418244	      9.28022447	    -36.51271356	     14.78485951	      7.34038522	     -0.10429994	      6.25887256	     -8.73964976
      1.69000000	     -1.98621430	     -5.83164073	     11.41146475	      0.97138403	      0.96581926	     -0.31045813	     16.82707132	      4.28001118	    -12.69540360	    -19.68275783	      3.58223095	      1.29281236	      3.38495119	     -8.36431022	      9.26534959	    -37.38837614	     14.21434282	      7.34761067	     -0.12351805	      6.20631830	     -8.88047660
